<?xml version="1.0" encoding="UTF-8"?>
<!DOCTYPE svg PUBLIC "-//W3C//DTD SVG 1.1//EN" "http://www.w3.org/Graphics/SVG/1.1/DTD/svg11.dtd">
<svg xmlns="http://www.w3.org/2000/svg" version="1.1" width="522px" height="413px" style="shape-rendering:geometricPrecision; text-rendering:geometricPrecision; image-rendering:optimizeQuality; fill-rule:evenodd; clip-rule:evenodd" xmlns:xlink="http://www.w3.org/1999/xlink">
<g><path style="opacity:1" fill="#fcfcfc" d="M -0.5,-0.5 C 173.5,-0.5 347.5,-0.5 521.5,-0.5C 521.5,137.167 521.5,274.833 521.5,412.5C 347.5,412.5 173.5,412.5 -0.5,412.5C -0.5,274.833 -0.5,137.167 -0.5,-0.5 Z"/></g>
<g><path style="opacity:1" fill="#d7d7d7" d="M 273.5,1.5 C 274.822,1.33003 275.989,1.66337 277,2.5C 277.667,10.5 277.667,18.5 277,26.5C 275.644,27.3802 274.144,27.7135 272.5,27.5C 272.197,18.7489 272.53,10.0823 273.5,1.5 Z"/></g>
<g><path style="opacity:1" fill="#151515" d="M 365.5,32.5 C 369.138,31.7366 370.638,33.0699 370,36.5C 364.134,42.0313 358.634,47.8647 353.5,54C 348.858,55.0322 347.692,53.5322 350,49.5C 355.742,44.2623 360.909,38.5957 365.5,32.5 Z"/></g>
<g><path style="opacity:1" fill="#121213" d="M 180.5,32.5 C 181.873,32.3433 183.207,32.51 184.5,33C 189.667,38.8333 194.833,44.6667 200,50.5C 200.611,54.0876 199.111,55.2542 195.5,54C 190.451,48.0727 185.284,42.2394 180,36.5C 179.421,35.0715 179.588,33.7382 180.5,32.5 Z"/></g>
<g><path style="opacity:1" fill="#050505" d="M 278.5,218.5 C 280.932,204.611 283.432,190.611 286,176.5C 295.486,159.356 306.153,143.023 318,127.5C 318.483,126.552 318.649,125.552 318.5,124.5C 312.277,126.269 305.943,126.769 299.5,126C 295.943,123.264 292.61,120.431 289.5,117.5C 287.377,118.312 285.21,118.978 283,119.5C 280.438,118.612 278.104,117.279 276,115.5C 272.484,117.84 268.651,119.507 264.5,120.5C 258.951,117.892 253.284,115.559 247.5,113.5C 252.065,131.31 257.232,148.976 263,166.5C 263.667,172.167 263.667,177.833 263,183.5C 261.585,195.815 260.419,208.149 259.5,220.5C 258.167,220.5 256.833,220.5 255.5,220.5C 256.5,208.502 257.5,196.502 258.5,184.5C 250.128,184.88 243.295,181.88 238,175.5C 231.667,160.5 225.333,145.5 219,130.5C 215.82,122.567 217.486,115.901 224,110.5C 229.743,94.7751 239.243,81.9418 252.5,72C 255.618,70.9413 258.618,69.6079 261.5,68C 264.007,63.3181 267.007,58.9848 270.5,55C 276.088,53.9241 281.755,53.0907 287.5,52.5C 253.607,46.6997 227.107,58.0331 208,86.5C 199.458,102.591 197.125,119.591 201,137.5C 203.78,145.061 207.113,152.394 211,159.5C 221.062,173.958 228.729,189.625 234,206.5C 234.923,210.79 235.423,215.123 235.5,219.5C 231.885,219.794 228.718,218.794 226,216.5C 224.314,209.758 222.314,203.091 220,196.5C 211,180.833 202,165.167 193,149.5C 179.569,107.215 191.402,74.0488 228.5,50C 247.856,39.2634 268.522,35.5967 290.5,39C 329.596,47.4292 354.429,70.9292 365,109.5C 367.569,134.449 361.235,156.783 346,176.5C 338.667,185.167 331.333,193.833 324,202.5C 319.163,209.347 315.163,216.68 312,224.5C 308.636,225.739 305.136,226.406 301.5,226.5C 304.293,216.578 308.46,207.245 314,198.5C 321.952,187.547 330.285,176.88 339,166.5C 360.695,130.526 356.528,98.026 326.5,69C 318.45,61.8074 309.117,56.9741 298.5,54.5C 297.833,54.8333 297.167,55.1667 296.5,55.5C 322.756,65.2663 338.922,83.933 345,111.5C 346.504,124.302 344.838,136.635 340,148.5C 328.547,162.954 316.047,176.454 302.5,189C 297.264,190.339 291.93,190.839 286.5,190.5C 285.277,201.183 283.943,211.849 282.5,222.5C 281.167,222.5 279.833,222.5 278.5,222.5C 278.5,221.167 278.5,219.833 278.5,218.5 Z"/></g>
<g><path style="opacity:1" fill="#0d0d0d" d="M 251.5,60.5 C 254.167,60.5 256.833,60.5 259.5,60.5C 259.703,62.3904 259.037,63.8904 257.5,65C 239.337,73.6618 227.003,87.4951 220.5,106.5C 214.375,108.877 212.209,106.877 214,100.5C 220.41,81.267 232.91,67.9337 251.5,60.5 Z"/></g>
<g><path style="opacity:1" fill="#151515" d="M 405.5,96.5 C 410.574,96.3605 411.574,98.1939 408.5,102C 400.337,103.599 392.337,105.765 384.5,108.5C 382.5,108.5 381.5,107.5 381.5,105.5C 381.818,104.353 382.484,103.519 383.5,103C 391.14,101.429 398.473,99.2622 405.5,96.5 Z"/></g>
<g><path style="opacity:1" fill="#111010" d="M 140.5,97.5 C 150.259,99.0227 159.925,101.023 169.5,103.5C 169.67,104.822 169.337,105.989 168.5,107C 164.449,107.518 160.449,107.184 156.5,106C 151.56,104.515 146.56,103.181 141.5,102C 139.452,100.774 139.119,99.2741 140.5,97.5 Z"/></g>
<g><path style="opacity:1" fill="#d6d6d6" d="M 278.5,218.5 C 278.649,217.448 278.483,216.448 278,215.5C 277.809,217.708 277.309,219.708 276.5,221.5C 277.76,207.755 279.593,194.089 282,180.5C 286.371,168.753 292.538,158.086 300.5,148.5C 286.479,145.997 272.479,144.33 258.5,143.5C 261.893,153.506 264.56,163.673 266.5,174C 265.412,189.378 263.745,204.545 261.5,219.5C 261.631,218.761 261.464,218.094 261,217.5C 260.768,218.737 260.268,219.737 259.5,220.5C 260.419,208.149 261.585,195.815 263,183.5C 263.667,177.833 263.667,172.167 263,166.5C 257.232,148.976 252.065,131.31 247.5,113.5C 253.284,115.559 258.951,117.892 264.5,120.5C 268.651,119.507 272.484,117.84 276,115.5C 278.104,117.279 280.438,118.612 283,119.5C 285.21,118.978 287.377,118.312 289.5,117.5C 292.61,120.431 295.943,123.264 299.5,126C 305.943,126.769 312.277,126.269 318.5,124.5C 318.649,125.552 318.483,126.552 318,127.5C 306.153,143.023 295.486,159.356 286,176.5C 283.432,190.611 280.932,204.611 278.5,218.5 Z"/></g>
<g><path style="opacity:1" fill="#070706" d="M 250.5,116.5 C 253.589,117.739 256.589,119.239 259.5,121C 264.853,122.133 269.853,121.3 274.5,118.5C 274.651,126.065 274.651,133.732 274.5,141.5C 269.508,141.001 264.508,140.501 259.5,140C 258.584,139.626 257.75,139.126 257,138.5C 254.83,131.148 252.663,123.815 250.5,116.5 Z"/></g>
<g><path style="opacity:1" fill="#040303" d="M 277.5,118.5 C 280.61,122.145 284.11,122.478 288,119.5C 286.674,127.149 285.174,134.816 283.5,142.5C 281.5,142.5 279.5,142.5 277.5,142.5C 277.5,134.5 277.5,126.5 277.5,118.5 Z"/></g>
<g><path style="opacity:1" fill="#0c0b0b" d="M 291.5,121.5 C 294.003,123.833 296.669,125.999 299.5,128C 304.551,128.492 309.551,128.492 314.5,128C 311.202,133.43 307.535,138.597 303.5,143.5C 297.511,144.988 291.678,144.655 286,142.5C 287.256,135.399 289.09,128.399 291.5,121.5 Z"/></g>
<g><path style="opacity:1" fill="#050505" d="M 276.5,221.5 C 271.336,222.634 266.336,221.967 261.5,219.5C 263.745,204.545 265.412,189.378 266.5,174C 264.56,163.673 261.893,153.506 258.5,143.5C 272.479,144.33 286.479,145.997 300.5,148.5C 292.538,158.086 286.371,168.753 282,180.5C 279.593,194.089 277.76,207.755 276.5,221.5 Z"/></g>
<g><path style="opacity:1" fill="#131212" d="M 375.5,156.5 C 384.954,158.817 394.288,161.65 403.5,165C 405.063,167.476 404.396,168.976 401.5,169.5C 393.137,167.101 384.803,164.601 376.5,162C 374.365,160.444 374.032,158.611 375.5,156.5 Z"/></g>
<g><path style="opacity:1" fill="#151414" d="M 170.5,156.5 C 172.527,156.338 174.527,156.505 176.5,157C 177.727,158.587 177.394,159.921 175.5,161C 167.413,163.417 159.413,166.084 151.5,169C 146.411,169.725 145.411,168.058 148.5,164C 155.984,161.562 163.317,159.062 170.5,156.5 Z"/></g>
<g><path style="opacity:1" fill="#121212" d="M 194.5,194.5 C 197.001,194.826 198.168,196.159 198,198.5C 191.547,203.986 185.38,209.82 179.5,216C 175.29,216.089 174.457,214.256 177,210.5C 183.029,205.301 188.862,199.967 194.5,194.5 Z"/></g>
<g><path style="opacity:1" fill="#161616" d="M 349.5,195.5 C 350.873,195.343 352.207,195.51 353.5,196C 359,201.5 364.5,207 370,212.5C 370.49,213.793 370.657,215.127 370.5,216.5C 369.127,216.657 367.793,216.49 366.5,216C 360.365,210.866 354.531,205.366 349,199.5C 348.805,198.181 348.972,196.847 349.5,195.5 Z"/></g>
<g><path style="opacity:1" fill="#0c0c0b" d="M 230.5,225.5 C 255.206,230.771 280.206,233.271 305.5,233C 309.701,236.523 309.368,239.523 304.5,242C 284.702,242.519 265.035,241.186 245.5,238C 240.363,237.133 235.363,235.799 230.5,234C 227.899,231.17 227.899,228.337 230.5,225.5 Z"/></g>
<g><path style="opacity:1" fill="#101010" d="M 230.5,241.5 C 253.638,245.558 276.972,247.725 300.5,248C 304.701,251.523 304.368,254.523 299.5,257C 276.875,257.482 254.542,255.149 232.5,250C 229.474,247.702 228.808,244.869 230.5,241.5 Z"/></g>
<g><path style="opacity:1" fill="#7f7e7f" d="M 474.5,270.5 C 475.167,272.5 475.833,274.5 476.5,276.5C 476.44,277.043 476.107,277.376 475.5,277.5C 474.526,275.257 474.192,272.924 474.5,270.5 Z"/></g>
<g><path style="opacity:1" fill="#141414" d="M 213.5,276.5 C 213.5,277.833 213.5,279.167 213.5,280.5C 221.833,280.5 230.167,280.5 238.5,280.5C 240.062,280.733 241.395,281.4 242.5,282.5C 232.167,283.167 221.833,283.833 211.5,284.5C 208.529,261.326 195.529,252.493 172.5,258C 162.786,263.26 158.119,271.426 158.5,282.5C 153.86,281.603 149.194,281.436 144.5,282C 139.91,283.297 135.577,285.13 131.5,287.5C 121.373,281.681 110.873,281.014 100,285.5C 84.2667,261.69 63.4333,255.857 37.5,268C 22.7198,278.701 13.8865,293.201 11,311.5C 7.58419,332.157 11.5842,351.157 23,368.5C 30.8426,377.673 40.6759,383.507 52.5,386C 55.7133,395.211 61.7133,401.878 70.5,406C 82.2555,407.64 91.7555,403.806 99,394.5C 102.807,388.058 103.474,381.392 101,374.5C 110.639,385.267 122.306,388.267 136,383.5C 146.188,387.3 155.354,385.633 163.5,378.5C 175.313,388.293 187.647,388.96 200.5,380.5C 202.385,381.609 204.385,382.443 206.5,383C 225.5,383.667 244.5,383.667 263.5,383C 268.535,380.8 272.868,377.633 276.5,373.5C 292.825,386.134 310.825,388.968 330.5,382C 338.443,378.721 345.277,373.888 351,367.5C 368.692,386.129 389.526,390.629 413.5,381C 417.496,379.337 421.163,377.171 424.5,374.5C 428.069,378.238 432.069,381.404 436.5,384C 448.575,386.949 458.908,384.116 467.5,375.5C 478.909,387.291 490.576,387.457 502.5,376C 510.54,370.093 513.706,362.26 512,352.5C 506.874,344.379 501.374,336.546 495.5,329C 498.234,324.259 501.734,320.093 506,316.5C 510.625,308.435 510.625,300.435 506,292.5C 502.167,288.667 498.333,284.833 494.5,281C 486.522,277.081 479.188,277.915 472.5,283.5C 471.833,279.5 471.167,275.5 470.5,271.5C 467.5,263.009 461.5,257.842 452.5,256C 429.473,255.203 419.473,266.37 422.5,289.5C 414.963,285.597 406.963,282.764 398.5,281C 378.719,278.473 362.552,284.973 350,300.5C 333.722,280.938 313.556,275.605 289.5,284.5C 289.5,284.167 289.5,283.833 289.5,283.5C 293.377,281.127 297.377,278.961 301.5,277C 320.421,274.751 336.588,280.251 350,293.5C 370.329,274.981 393.162,271.315 418.5,282.5C 417.634,266.393 424.967,256.226 440.5,252C 452.426,250.531 462.593,254.031 471,262.5C 472.993,264.818 474.159,267.484 474.5,270.5C 474.192,272.924 474.526,275.257 475.5,277.5C 476.107,277.376 476.44,277.043 476.5,276.5C 483.306,274.867 489.973,275.367 496.5,278C 504.148,283.313 509.982,290.146 514,298.5C 514.977,303.734 514.31,308.734 512,313.5C 508.923,319.241 505.09,324.408 500.5,329C 505.206,335.572 510.039,342.072 515,348.5C 518.451,360.203 515.618,370.036 506.5,378C 498.719,385.705 489.386,389.038 478.5,388C 474.407,386.206 470.574,384.039 467,381.5C 452.16,392.44 437.66,392.107 423.5,380.5C 402.199,392.175 380.866,392.342 359.5,381C 356.5,378.5 353.5,376 350.5,373.5C 334.371,387.7 315.704,392.533 294.5,388C 288.25,385.923 282.417,383.089 277,379.5C 272.827,383.171 267.993,385.671 262.5,387C 243.167,387.667 223.833,387.667 204.5,387C 203.391,386.362 202.225,385.862 201,385.5C 187.69,392.77 174.856,392.103 162.5,383.5C 154.485,389.797 145.651,391.13 136,387.5C 129.969,389.443 123.803,389.943 117.5,389C 113.835,387.722 110.168,386.556 106.5,385.5C 103.453,398.382 95.453,406.548 82.5,410C 65.9694,411.892 54.9694,404.892 49.5,389C 28.4805,383.648 14.9805,370.482 9,349.5C 1.93779,322.977 6.27112,298.644 22,276.5C 40.5284,256.061 62.0284,252.228 86.5,265C 92.3552,269.522 97.5219,274.689 102,280.5C 112.301,277.108 122.135,278.108 131.5,283.5C 138.302,278.401 145.969,276.234 154.5,277C 160.608,255.275 174.608,247.608 196.5,254C 205.923,258.686 211.589,266.186 213.5,276.5 Z"/></g>
<g><path style="opacity:1" fill="#a6a6a5" d="M 405.5,339.5 C 396.733,341.259 387.733,341.925 378.5,341.5C 387.33,340.558 396.33,339.892 405.5,339.5 Z"/></g>
<g><path style="opacity:1" fill="#767575" d="M 211.5,319.5 C 218.532,319.17 225.532,319.503 232.5,320.5C 232.376,321.107 232.043,321.44 231.5,321.5C 224.833,320.833 218.167,320.167 211.5,319.5 Z"/></g>
<g><path style="opacity:1" fill="#040404" d="M 178.5,300.5 C 185.738,299.07 191.238,301.404 195,307.5C 195.356,326.506 195.023,345.506 194,364.5C 190.493,373.162 184.326,375.662 175.5,372C 173.622,370.457 172.122,368.624 171,366.5C 170.397,346.821 170.73,327.154 172,307.5C 173.694,304.642 175.861,302.309 178.5,300.5 Z"/></g>
<g><path style="opacity:1" fill="#050505" d="M 231.5,321.5 C 232.043,321.44 232.376,321.107 232.5,320.5C 225.532,319.503 218.532,319.17 211.5,319.5C 201.929,315.055 200.096,308.388 206,299.5C 207.419,298.54 208.919,297.707 210.5,297C 226.833,296.333 243.167,296.333 259.5,297C 267.443,300.558 269.61,306.391 266,314.5C 255.633,325.345 245.133,336.178 234.5,347C 243.167,347.333 251.833,347.667 260.5,348C 267.549,352.487 269.383,358.654 266,366.5C 264.269,368.617 262.102,370.117 259.5,371C 242.167,371.667 224.833,371.667 207.5,371C 201.371,367.577 198.871,362.41 200,355.5C 209.999,343.669 220.499,332.336 231.5,321.5 Z"/></g>
<g><path style="opacity:1" fill="#060605" d="M 146.5,293.5 C 153.023,293.054 158.19,295.388 162,300.5C 162.667,316.833 162.667,333.167 162,349.5C 161.876,356.477 159.876,362.81 156,368.5C 149.728,373.743 143.561,373.743 137.5,368.5C 118.431,376.883 106.264,370.883 101,350.5C 100.079,334.454 100.412,318.454 102,302.5C 106.051,294.626 112.218,292.459 120.5,296C 122,297.5 123.5,299 125,300.5C 124.584,315.155 124.584,329.821 125,344.5C 129.767,351.401 134.101,351.067 138,343.5C 138.333,329.167 138.667,314.833 139,300.5C 140.742,297.254 143.242,294.921 146.5,293.5 Z"/></g>
<g><path style="opacity:1" fill="#040404" d="M 405.5,339.5 C 396.33,339.892 387.33,340.558 378.5,341.5C 379.252,348.582 383.252,352.249 390.5,352.5C 392.923,352.406 395.256,351.906 397.5,351C 401.5,348.333 405.5,345.667 409.5,343C 419.82,343 423.986,348.166 422,358.5C 417.383,365.065 411.216,369.565 403.5,372C 368.794,376.724 351.961,361.557 353,326.5C 360.005,299.252 377.172,288.752 404.5,295C 418.356,301.562 424.856,312.395 424,327.5C 422.895,332.206 420.062,335.373 415.5,337C 412.198,338.026 408.865,338.86 405.5,339.5 Z"/></g>
<g><path style="opacity:1" fill="#8f8f8f" d="M 399.5,320.5 C 400.434,321.568 400.768,322.901 400.5,324.5C 398.833,324.5 397.167,324.5 395.5,324.5C 396.568,323.566 397.901,323.232 399.5,323.5C 399.5,322.5 399.5,321.5 399.5,320.5 Z"/></g>
<g><path style="opacity:1" fill="#f3f2f2" d="M 399.5,320.5 C 399.5,321.5 399.5,322.5 399.5,323.5C 397.901,323.232 396.568,323.566 395.5,324.5C 389.833,324.5 384.167,324.5 378.5,324.5C 379.638,316.421 384.304,312.921 392.5,314C 396.008,315.012 398.342,317.178 399.5,320.5 Z"/></g>
<g><path style="opacity:1" fill="#050404" d="M 305.5,292.5 C 324.543,291.391 337.376,299.724 344,317.5C 345.886,327.23 342.386,334.063 333.5,338C 321.919,339.996 310.252,340.829 298.5,340.5C 298.556,346.103 301.223,349.936 306.5,352C 314.16,353.339 320.493,351.006 325.5,345C 334.768,340.967 340.435,343.801 342.5,353.5C 339.268,363.227 332.602,369.394 322.5,372C 304.657,376.719 290.157,371.886 279,357.5C 268.355,336.824 270.855,317.991 286.5,301C 292.263,296.698 298.596,293.865 305.5,292.5 Z"/></g>
<g><path style="opacity:1" fill="#494b4a" d="M 298.5,322.5 C 302.373,324.43 306.706,325.097 311.5,324.5C 307.03,325.486 302.363,325.819 297.5,325.5C 297.263,324.209 297.596,323.209 298.5,322.5 Z"/></g>
<g><path style="opacity:1" fill="#f3f3f3" d="M 311.5,324.5 C 306.706,325.097 302.373,324.43 298.5,322.5C 299.895,316.779 303.561,314.112 309.5,314.5C 316.32,314.319 319.987,317.652 320.5,324.5C 317.5,324.5 314.5,324.5 311.5,324.5 Z"/></g>
<g><path style="opacity:1" fill="#555554" d="M 289.5,283.5 C 289.5,283.833 289.5,284.167 289.5,284.5C 285.221,287.32 280.888,289.82 276.5,292C 280.178,288.161 284.512,285.328 289.5,283.5 Z"/></g>
<g><path style="opacity:1" fill="#636262" d="M 242.5,282.5 C 243.289,282.783 243.956,283.283 244.5,284C 233.505,284.5 222.505,284.667 211.5,284.5C 221.833,283.833 232.167,283.167 242.5,282.5 Z"/></g>
<g><path style="opacity:1" fill="#8d8d8d" d="M 213.5,276.5 C 214.404,277.209 214.737,278.209 214.5,279.5C 222.684,279.174 230.684,279.508 238.5,280.5C 230.167,280.5 221.833,280.5 213.5,280.5C 213.5,279.167 213.5,277.833 213.5,276.5 Z"/></g>
<g><path style="opacity:1" fill="#838283" d="M 470.5,271.5 C 471.167,275.5 471.833,279.5 472.5,283.5C 472.44,284.043 472.107,284.376 471.5,284.5C 470.508,280.217 470.174,275.884 470.5,271.5 Z"/></g>
<g><path style="opacity:1" fill="#030303" d="M 52.5,274.5 C 76.7283,273.545 90.5617,285.212 94,309.5C 95.6153,322.838 94.282,335.838 90,348.5C 87.7114,354.251 84.5447,359.418 80.5,364C 84.4397,369.713 87.4397,375.879 89.5,382.5C 89.1882,388.284 86.1882,391.784 80.5,393C 77.366,393.79 74.366,393.457 71.5,392C 67.3282,385.994 63.6616,379.661 60.5,373C 40.6261,371.803 28.7927,361.303 25,341.5C 19.8487,319.615 24.3487,300.115 38.5,283C 43.0965,279.877 47.7632,277.043 52.5,274.5 Z"/></g>
<g><path style="opacity:1" fill="#f6f6f6" d="M 55.5,302.5 C 63.2795,301.45 67.7795,304.783 69,312.5C 69.8953,321.947 69.2286,331.281 67,340.5C 64.7897,337.71 61.9563,336.877 58.5,338C 55.8783,341.13 55.8783,344.297 58.5,347.5C 56.5253,348.578 54.692,348.245 53,346.5C 49.1567,340.026 47.6567,333.026 48.5,325.5C 47.2937,316.637 49.627,308.97 55.5,302.5 Z"/></g>
<g><path style="opacity:1" fill="#b0b1af" d="M 252.5,272.5 C 257.731,272.444 262.731,273.111 267.5,274.5C 262.269,274.556 257.269,273.889 252.5,272.5 Z"/></g>
<g><path style="opacity:1" fill="#0c0c0c" d="M 252.5,272.5 C 257.269,273.889 262.269,274.556 267.5,274.5C 275.458,275.403 283.458,275.736 291.5,275.5C 292.026,278.808 290.693,280.974 287.5,282C 272.236,283.503 257.236,282.17 242.5,278C 239.466,276.809 237.799,274.642 237.5,271.5C 242.493,271.916 247.493,272.249 252.5,272.5 Z"/></g>
<g><path style="opacity:1" fill="#050504" d="M 441.5,268.5 C 447.971,267.345 453.471,269.011 458,273.5C 458.333,287.5 458.667,301.5 459,315.5C 462.904,311.352 466.571,307.019 470,302.5C 473.534,298.631 477.367,295.131 481.5,292C 488.288,292.159 493.454,295.326 497,301.5C 497.743,304.783 497.076,307.783 495,310.5C 489.267,316.31 483.767,322.31 478.5,328.5C 485.092,337.348 491.926,346.015 499,354.5C 499.79,357.634 499.457,360.634 498,363.5C 493.677,368.917 488.177,371.417 481.5,371C 473.615,361.955 465.949,352.788 458.5,343.5C 457.669,350.811 457.169,358.144 457,365.5C 453.439,372.078 447.939,374.245 440.5,372C 437.667,370.5 435.5,368.333 434,365.5C 433.57,335.828 433.903,306.161 435,276.5C 436.277,273.062 438.443,270.395 441.5,268.5 Z"/></g>
<g><path style="opacity:1" fill="#0a0a09" d="M 179.5,268.5 C 194.71,267.277 200.21,273.944 196,288.5C 186.324,298.546 177.991,297.546 171,285.5C 169.604,277.626 172.437,271.959 179.5,268.5 Z"/></g>
<g><path style="opacity:1" fill="#a1a0a0" d="M 247.5,258.5 C 252.731,258.444 257.731,259.111 262.5,260.5C 257.269,260.556 252.269,259.889 247.5,258.5 Z"/></g>
<g><path style="opacity:1" fill="#111111" d="M 247.5,258.5 C 252.269,259.889 257.269,260.556 262.5,260.5C 274.146,261.222 285.813,261.722 297.5,262C 300.265,264.966 299.932,267.633 296.5,270C 275.975,270.74 255.642,269.074 235.5,265C 229.218,261.974 229.052,259.14 235,256.5C 239.188,257.115 243.355,257.781 247.5,258.5 Z"/></g>
</svg>
