<?xml version="1.0" encoding="UTF-8"?>
<!DOCTYPE svg PUBLIC "-//W3C//DTD SVG 1.1//EN" "http://www.w3.org/Graphics/SVG/1.1/DTD/svg11.dtd">
<svg xmlns="http://www.w3.org/2000/svg" version="1.1" width="522px" height="413px" style="shape-rendering:geometricPrecision; text-rendering:geometricPrecision; image-rendering:optimizeQuality; fill-rule:evenodd; clip-rule:evenodd" xmlns:xlink="http://www.w3.org/1999/xlink">
<g><path style="opacity:1" fill="#020202" d="M -0.5,-0.5 C 173.5,-0.5 347.5,-0.5 521.5,-0.5C 521.5,137.167 521.5,274.833 521.5,412.5C 347.5,412.5 173.5,412.5 -0.5,412.5C -0.5,274.833 -0.5,137.167 -0.5,-0.5 Z"/></g>
<g><path style="opacity:1" fill="#282828" d="M 273.5,1.5 C 274.822,1.33003 275.989,1.66337 277,2.5C 277.667,10.5 277.667,18.5 277,26.5C 275.644,27.3802 274.144,27.7135 272.5,27.5C 272.197,18.7489 272.53,10.0823 273.5,1.5 Z"/></g>
<g><path style="opacity:1" fill="#f9f9f9" d="M 278.5,222.5 C 280.332,209.171 282.165,195.837 284,182.5C 285,179.5 286,176.5 287,173.5C 297.004,157.489 307.504,141.822 318.5,126.5C 312.218,126.268 305.884,126.101 299.5,126C 296.167,124 293.5,121.333 291.5,118C 288.567,117.704 285.734,118.204 283,119.5C 281.167,119.481 279.667,118.815 278.5,117.5C 278.134,116.305 277.301,115.639 276,115.5C 272.468,117.849 268.635,119.516 264.5,120.5C 258.966,117.901 253.299,115.568 247.5,113.5C 252.197,131.283 257.363,148.95 263,166.5C 263.667,173.5 263.667,180.5 263,187.5C 261.35,198.456 260.183,209.456 259.5,220.5C 258.167,220.5 256.833,220.5 255.5,220.5C 255.283,215.77 255.617,211.103 256.5,206.5C 257.889,201.731 258.556,196.731 258.5,191.5C 258.5,189.167 258.5,186.833 258.5,184.5C 250.128,184.88 243.295,181.88 238,175.5C 231.138,159.915 224.472,144.248 218,128.5C 216.359,120.448 218.692,113.782 225,108.5C 229.835,96.6719 236.668,86.1719 245.5,77C 250.265,73.0705 255.598,70.0705 261.5,68C 264.007,63.3181 267.007,58.9848 270.5,55C 276.088,53.9241 281.755,53.0907 287.5,52.5C 248.05,46.6381 219.883,61.6381 203,97.5C 198.417,112.798 198.417,128.131 203,143.5C 209.241,156.321 216.241,168.654 224,180.5C 231.09,192.526 234.924,205.526 235.5,219.5C 231.885,219.794 228.718,218.794 226,216.5C 223.751,209.933 221.751,203.266 220,196.5C 212.065,182.239 203.731,168.239 195,154.5C 178.3,111.608 188.8,77.1077 226.5,51C 263.654,31.2992 299.32,33.6325 333.5,58C 367.387,87.7148 374.553,122.881 355,163.5C 344.482,177.863 333.482,191.863 322,205.5C 318.23,211.603 314.897,217.937 312,224.5C 308.715,226.137 305.215,226.804 301.5,226.5C 303.537,217.559 307.037,209.225 312,201.5C 319.618,190.881 327.618,180.548 336,170.5C 356.659,141.686 357.659,112.352 339,82.5C 329.044,69.275 316.211,60.1083 300.5,55C 299.167,54.3333 297.833,54.3333 296.5,55C 322.649,65.1571 338.816,83.9904 345,111.5C 347.424,125.762 345.09,139.096 338,151.5C 327.202,163.967 316.035,176.133 304.5,188C 298.732,190.228 292.732,191.061 286.5,190.5C 285.466,201.215 284.132,211.882 282.5,222.5C 281.167,222.5 279.833,222.5 278.5,222.5 Z"/></g>
<g><path style="opacity:1" fill="#ededec" d="M 180.5,32.5 C 183.325,32.0807 185.491,33.0807 187,35.5C 191.333,40.5 195.667,45.5 200,50.5C 200.49,51.7932 200.657,53.1266 200.5,54.5C 197.956,54.8957 195.789,54.229 194,52.5C 189.333,47.1667 184.667,41.8333 180,36.5C 179.421,35.0715 179.588,33.7382 180.5,32.5 Z"/></g>
<g><path style="opacity:1" fill="#ededed" d="M 365.5,32.5 C 369.138,31.7366 370.638,33.0699 370,36.5C 364.134,42.0313 358.634,47.8647 353.5,54C 348.858,55.0322 347.692,53.5322 350,49.5C 355.742,44.2623 360.909,38.5957 365.5,32.5 Z"/></g>
<g><path style="opacity:1" fill="#f1f1f1" d="M 254.5,59.5 C 258.138,58.7366 259.638,60.0699 259,63.5C 249.432,68.9558 240.765,75.6225 233,83.5C 227.525,90.6406 223.358,98.474 220.5,107C 214.333,108.833 212.167,106.667 214,100.5C 220.374,79.7192 233.874,66.0525 254.5,59.5 Z"/></g>
<g><path style="opacity:1" fill="#e7e7e7" d="M 404.5,96.5 C 410.262,95.7245 411.595,97.5578 408.5,102C 400.349,103.597 392.349,105.764 384.5,108.5C 382.5,108.5 381.5,107.5 381.5,105.5C 381.818,104.353 382.484,103.519 383.5,103C 390.819,101.463 397.819,99.2963 404.5,96.5 Z"/></g>
<g><path style="opacity:1" fill="#e6e6e6" d="M 140.5,97.5 C 148.511,98.6662 156.511,100.166 164.5,102C 170.353,103.301 170.853,105.468 166,108.5C 158.55,106.429 151.05,104.596 143.5,103C 140.334,102.066 139.334,100.233 140.5,97.5 Z"/></g>
<g><path style="opacity:1" fill="#222222" d="M 278.5,117.5 C 279.667,118.815 281.167,119.481 283,119.5C 285.734,118.204 288.567,117.704 291.5,118C 293.5,121.333 296.167,124 299.5,126C 305.884,126.101 312.218,126.268 318.5,126.5C 307.504,141.822 297.004,157.489 287,173.5C 286,176.5 285,179.5 284,182.5C 282.165,195.837 280.332,209.171 278.5,222.5C 277.833,222.5 277.167,222.5 276.5,222.5C 277.605,207.324 279.772,192.324 283,177.5C 287.808,167.197 293.641,157.53 300.5,148.5C 287.532,146.239 274.532,144.239 261.5,142.5C 260.5,142.833 259.5,143.167 258.5,143.5C 261.893,153.506 264.56,163.673 266.5,174C 265.367,189.574 263.7,205.074 261.5,220.5C 260.833,220.5 260.167,220.5 259.5,220.5C 260.183,209.456 261.35,198.456 263,187.5C 263.667,180.5 263.667,173.5 263,166.5C 257.363,148.95 252.197,131.283 247.5,113.5C 253.299,115.568 258.966,117.901 264.5,120.5C 268.635,119.516 272.468,117.849 276,115.5C 277.301,115.639 278.134,116.305 278.5,117.5 Z"/></g>
<g><path style="opacity:1" fill="#f9f9f9" d="M 278.5,117.5 C 280.684,121.938 283.851,122.605 288,119.5C 288.167,120.167 288.333,120.833 288.5,121.5C 286.62,128.469 284.953,135.469 283.5,142.5C 281.5,142.5 279.5,142.5 277.5,142.5C 277.174,133.983 277.507,125.65 278.5,117.5 Z"/></g>
<g><path style="opacity:1" fill="#f7f7f8" d="M 250.5,115.5 C 257.768,122.161 265.768,123.161 274.5,118.5C 274.651,126.065 274.651,133.732 274.5,141.5C 268.384,141.842 262.551,140.842 257,138.5C 254.52,130.896 252.353,123.229 250.5,115.5 Z"/></g>
<g><path style="opacity:1" fill="#f5f5f5" d="M 302.5,144.5 C 298.19,143.92 293.857,143.586 289.5,143.5C 288.167,143.5 286.833,143.5 285.5,143.5C 286.57,135.886 288.57,128.553 291.5,121.5C 294.022,123.856 296.688,126.023 299.5,128C 304.535,128.418 309.535,128.418 314.5,128C 311.024,133.962 307.024,139.462 302.5,144.5 Z"/></g>
<g><path style="opacity:1" fill="#f9f9f9" d="M 276.5,222.5 C 271.269,222.556 266.269,221.889 261.5,220.5C 263.7,205.074 265.367,189.574 266.5,174C 264.56,163.673 261.893,153.506 258.5,143.5C 259.5,143.167 260.5,142.833 261.5,142.5C 274.532,144.239 287.532,146.239 300.5,148.5C 293.641,157.53 287.808,167.197 283,177.5C 279.772,192.324 277.605,207.324 276.5,222.5 Z"/></g>
<g><path style="opacity:1" fill="#afafb0" d="M 289.5,143.5 C 293.857,143.586 298.19,143.92 302.5,144.5C 298.106,145.59 293.773,145.256 289.5,143.5 Z"/></g>
<g><path style="opacity:1" fill="#e8e9e8" d="M 375.5,156.5 C 384.498,158.887 393.498,161.387 402.5,164C 405.529,168.656 404.196,170.323 398.5,169C 391.167,166.667 383.833,164.333 376.5,162C 374.365,160.444 374.032,158.611 375.5,156.5 Z"/></g>
<g><path style="opacity:1" fill="#e9e9e9" d="M 170.5,156.5 C 172.527,156.338 174.527,156.505 176.5,157C 177.727,158.587 177.394,159.921 175.5,161C 167.489,163.669 159.489,166.335 151.5,169C 146.411,169.725 145.411,168.058 148.5,164C 155.968,161.567 163.302,159.067 170.5,156.5 Z"/></g>
<g><path style="opacity:1" fill="#ececec" d="M 194.5,194.5 C 197.001,194.826 198.168,196.159 198,198.5C 191.929,204.449 185.762,210.282 179.5,216C 175.912,216.611 174.746,215.111 176,211.5C 182.363,205.967 188.529,200.301 194.5,194.5 Z"/></g>
<g><path style="opacity:1" fill="#e9e9e9" d="M 349.5,195.5 C 350.873,195.343 352.207,195.51 353.5,196C 359,201.5 364.5,207 370,212.5C 370.49,213.793 370.657,215.127 370.5,216.5C 368.345,216.628 366.345,216.128 364.5,215C 359.36,209.86 354.194,204.694 349,199.5C 348.421,198.072 348.588,196.738 349.5,195.5 Z"/></g>
<g><path style="opacity:1" fill="#a1a1a3" d="M 258.5,191.5 C 258.556,196.731 257.889,201.731 256.5,206.5C 256.444,201.269 257.111,196.269 258.5,191.5 Z"/></g>
<g><path style="opacity:1" fill="#f3f3f4" d="M 229.5,225.5 C 254.564,230.416 279.897,232.916 305.5,233C 309.482,235.952 309.482,238.952 305.5,242C 280.028,243.461 255.028,240.795 230.5,234C 228.162,231.458 227.828,228.625 229.5,225.5 Z"/></g>
<g><path style="opacity:1" fill="#efeff0" d="M 231.5,240.5 C 254.16,245.606 277.16,248.106 300.5,248C 304.611,251.452 304.278,254.452 299.5,257C 276.861,257.636 254.528,255.303 232.5,250C 228.956,247.127 228.623,243.96 231.5,240.5 Z"/></g>
<g><path style="opacity:1" fill="#e9eaea" d="M 213.5,276.5 C 213.5,277.833 213.5,279.167 213.5,280.5C 221.833,280.5 230.167,280.5 238.5,280.5C 240.062,280.733 241.395,281.4 242.5,282.5C 232.5,283.167 222.5,283.833 212.5,284.5C 211.5,284.5 210.5,284.5 209.5,284.5C 210.081,266.911 201.581,257.244 184,255.5C 167.41,256.922 158.91,265.922 158.5,282.5C 148.44,279.933 139.44,281.933 131.5,288.5C 121.609,281.695 111.109,280.695 100,285.5C 84.2667,261.69 63.4333,255.857 37.5,268C 21.7723,280.281 12.939,296.447 11,316.5C 7.41966,339.796 13.9197,359.629 30.5,376C 36.8659,380.932 44.0325,384.099 52,385.5C 54.7955,392.237 58.9621,398.07 64.5,403C 78.0885,409.032 89.5885,406.199 99,394.5C 102.807,388.058 103.474,381.392 101,374.5C 110.556,384.931 122.056,387.931 135.5,383.5C 145.853,387.334 155.186,385.667 163.5,378.5C 175.313,388.293 187.647,388.96 200.5,380.5C 202.385,381.609 204.385,382.443 206.5,383C 225.5,383.667 244.5,383.667 263.5,383C 268.535,380.8 272.868,377.633 276.5,373.5C 292.848,386.14 310.848,388.973 330.5,382C 338.491,378.656 345.324,373.823 351,367.5C 368.653,386.118 389.487,390.618 413.5,381C 417.496,379.337 421.163,377.171 424.5,374.5C 428.132,378.633 432.465,381.8 437.5,384C 449.156,386.723 459.156,383.889 467.5,375.5C 478.909,387.291 490.576,387.457 502.5,376C 510.54,370.093 513.706,362.26 512,352.5C 506.874,344.379 501.374,336.546 495.5,329C 498.234,324.259 501.734,320.093 506,316.5C 510.625,308.435 510.625,300.435 506,292.5C 501.756,287.585 496.923,283.419 491.5,280C 484.439,277.34 478.106,278.507 472.5,283.5C 471.833,280.167 471.167,276.833 470.5,273.5C 469.76,266.919 466.427,262.086 460.5,259C 446.378,252.656 434.545,255.489 425,267.5C 422.761,274.632 421.927,281.965 422.5,289.5C 416.085,286.526 409.418,284.026 402.5,282C 381.171,277.174 363.837,283.34 350.5,300.5C 335.948,283.316 317.615,277.316 295.5,282.5C 294.508,282.672 293.842,282.338 293.5,281.5C 295.649,279.254 298.316,277.754 301.5,277C 320.39,274.741 336.557,280.241 350,293.5C 370.318,274.964 393.151,271.298 418.5,282.5C 417.634,266.393 424.967,256.226 440.5,252C 449.398,250.741 457.731,252.408 465.5,257C 470.15,260.486 473.15,264.986 474.5,270.5C 474.192,272.924 474.526,275.257 475.5,277.5C 476.107,277.376 476.44,277.043 476.5,276.5C 483.374,273.577 490.04,274.077 496.5,278C 504.148,283.313 509.982,290.146 514,298.5C 514.726,303.239 514.393,307.905 513,312.5C 509.412,318.588 505.246,324.255 500.5,329.5C 505.909,335.407 510.742,341.74 515,348.5C 518.894,360.876 515.727,371.043 505.5,379C 497.825,386.003 488.825,389.003 478.5,388C 474.504,386.337 470.837,384.171 467.5,381.5C 452.65,392.494 438.15,392.161 424,380.5C 404.65,390.976 384.817,392.143 364.5,384C 359.654,380.743 354.988,377.243 350.5,373.5C 334.444,388.012 315.777,392.846 294.5,388C 288.176,386.088 282.343,383.254 277,379.5C 273.048,382.895 268.548,385.395 263.5,387C 243.833,387.667 224.167,387.667 204.5,387C 203.391,386.362 202.225,385.862 201,385.5C 187.718,392.729 174.885,392.063 162.5,383.5C 154.485,389.797 145.651,391.13 136,387.5C 125.889,390.53 116.056,389.863 106.5,385.5C 102.63,401.026 92.6303,409.359 76.5,410.5C 62.9493,409.122 53.9493,401.955 49.5,389C 26.8218,382.988 12.9885,368.488 8,345.5C 1.15167,315.377 8.65167,289.544 30.5,268C 58.1278,250.701 81.9611,254.867 102,280.5C 112.208,277.089 121.874,278.089 131,283.5C 138.01,278.331 145.844,276.331 154.5,277.5C 156.058,266.764 161.725,258.931 171.5,254C 187.173,248.56 200.007,252.393 210,265.5C 212.076,268.893 213.242,272.56 213.5,276.5 Z"/></g>
<g><path style="opacity:1" fill="#efefef" d="M 231.5,256.5 C 243.409,258.489 255.409,259.989 267.5,261C 277.5,261.333 287.5,261.667 297.5,262C 300.399,265.156 300.065,267.822 296.5,270C 275.164,271.103 254.164,269.103 233.5,264C 230.472,262.089 229.806,259.589 231.5,256.5 Z"/></g>
<g><path style="opacity:1" fill="#f5f5f5" d="M 178.5,268.5 C 187.437,266.555 193.937,269.555 198,277.5C 198.952,285.954 195.452,291.788 187.5,295C 175.513,295.346 170.013,289.512 171,277.5C 172.642,273.7 175.142,270.7 178.5,268.5 Z"/></g>
<g><path style="opacity:1" fill="#fafafa" d="M 441.5,268.5 C 447.971,267.345 453.471,269.011 458,273.5C 458.333,287.5 458.667,301.5 459,315.5C 465.711,306.912 473.211,299.078 481.5,292C 488.587,291.706 493.753,294.873 497,301.5C 497.938,304.88 497.271,307.88 495,310.5C 489.684,316.65 484.184,322.65 478.5,328.5C 485.524,337.023 492.357,345.69 499,354.5C 499.79,357.634 499.457,360.634 498,363.5C 495.106,366.361 491.939,368.861 488.5,371C 484.793,371.996 481.459,371.33 478.5,369C 471.993,360.332 465.327,351.832 458.5,343.5C 457.669,350.811 457.169,358.144 457,365.5C 456.654,367.848 455.487,369.681 453.5,371C 449.289,372.534 444.956,372.867 440.5,372C 437.667,370.5 435.5,368.333 434,365.5C 433.339,335.824 433.672,306.157 435,276.5C 436.277,273.062 438.443,270.395 441.5,268.5 Z"/></g>
<g><path style="opacity:1" fill="#f3f3f3" d="M 237.5,271.5 C 255.411,273.937 273.411,275.27 291.5,275.5C 291.918,279.251 290.251,281.418 286.5,282C 271.23,283.407 256.23,282.073 241.5,278C 238.762,276.688 237.428,274.522 237.5,271.5 Z"/></g>
<g><path style="opacity:1" fill="#7f807e" d="M 474.5,270.5 C 475.167,272.5 475.833,274.5 476.5,276.5C 476.44,277.043 476.107,277.376 475.5,277.5C 474.526,275.257 474.192,272.924 474.5,270.5 Z"/></g>
<g><path style="opacity:1" fill="#fbfbfb" d="M 52.5,274.5 C 74.2335,272.741 87.7335,282.407 93,303.5C 97.1017,322.89 94.4351,341.223 85,358.5C 83.3804,360.241 81.8804,362.075 80.5,364C 84.5834,369.833 87.5834,376.166 89.5,383C 86.8278,392.336 80.8278,395.336 71.5,392C 67.3282,385.994 63.6616,379.661 60.5,373C 41.5027,372.018 29.6694,362.185 25,343.5C 19.9445,322.363 23.6112,303.029 36,285.5C 40.9973,280.929 46.4973,277.263 52.5,274.5 Z"/></g>
<g><path style="opacity:1" fill="#737373" d="M 470.5,273.5 C 471.167,276.833 471.833,280.167 472.5,283.5C 472.44,284.043 472.107,284.376 471.5,284.5C 470.511,280.893 470.177,277.226 470.5,273.5 Z"/></g>
<g><path style="opacity:1" fill="#717171" d="M 213.5,276.5 C 214.404,277.209 214.737,278.209 214.5,279.5C 222.684,279.174 230.684,279.508 238.5,280.5C 230.167,280.5 221.833,280.5 213.5,280.5C 213.5,279.167 213.5,277.833 213.5,276.5 Z"/></g>
<g><path style="opacity:1" fill="#b4b4b6" d="M 293.5,281.5 C 293.842,282.338 294.508,282.672 295.5,282.5C 288.982,284.762 282.982,288.096 277.5,292.5C 277.167,292.333 276.833,292.167 276.5,292C 281.525,287.486 287.191,283.986 293.5,281.5 Z"/></g>
<g><path style="opacity:1" fill="#9a9b9c" d="M 242.5,282.5 C 243.289,282.783 243.956,283.283 244.5,284C 233.839,284.5 223.172,284.667 212.5,284.5C 222.5,283.833 232.5,283.167 242.5,282.5 Z"/></g>
<g><path style="opacity:1" fill="#fafafa" d="M 322.5,339.5 C 314.271,339.178 306.271,339.845 298.5,341.5C 299.589,348.487 303.756,352.153 311,352.5C 317.721,351.145 323.554,347.978 328.5,343C 338.383,342.216 342.883,346.716 342,356.5C 336.557,365.927 328.39,371.427 317.5,373C 288.599,374.77 273.599,361.104 272.5,332C 275.727,303.066 291.727,290.399 320.5,294C 336.998,299.154 344.831,310.321 344,327.5C 342.5,333 339,336.5 333.5,338C 329.855,338.719 326.188,339.219 322.5,339.5 Z"/></g>
<g><path style="opacity:1" fill="#fafafa" d="M 383.5,292.5 C 403.208,290.424 416.708,298.424 424,316.5C 426.809,327.389 422.976,334.556 412.5,338C 401.287,340.268 389.954,341.435 378.5,341.5C 381.223,351.529 387.556,354.695 397.5,351C 401.5,348.333 405.5,345.667 409.5,343C 419.856,343.032 424.023,348.199 422,358.5C 418.778,363.714 414.278,367.548 408.5,370C 384.389,378.861 366.556,372.027 355,349.5C 347.732,321.675 357.232,302.675 383.5,292.5 Z"/></g>
<g><path style="opacity:1" fill="#fafafa" d="M 146.5,293.5 C 153.265,292.469 158.432,294.802 162,300.5C 162.667,318.167 162.667,335.833 162,353.5C 161.297,361.763 157.464,367.929 150.5,372C 145.36,373.46 141.026,372.293 137.5,368.5C 120.612,376.81 108.779,372.143 102,354.5C 101.017,348.88 100.517,343.213 100.5,337.5C 101.028,325.835 101.528,314.168 102,302.5C 106.051,294.626 112.218,292.459 120.5,296C 122.333,297.167 123.833,298.667 125,300.5C 124.754,315.161 124.754,329.827 125,344.5C 127.053,348.292 130.219,349.458 134.5,348C 136.768,346.442 137.934,344.276 138,341.5C 138.333,327.833 138.667,314.167 139,300.5C 140.742,297.254 143.242,294.921 146.5,293.5 Z"/></g>
<g><path style="opacity:1" fill="#fafafa" d="M 231.5,321.5 C 232.043,321.44 232.376,321.107 232.5,320.5C 225.532,319.503 218.532,319.17 211.5,319.5C 201.929,315.055 200.096,308.388 206,299.5C 207.419,298.54 208.919,297.707 210.5,297C 227.925,296.029 245.258,296.362 262.5,298C 267.645,302.598 268.812,308.098 266,314.5C 255.918,325.584 245.418,336.417 234.5,347C 243.167,347.333 251.833,347.667 260.5,348C 268.324,352.461 270.157,358.628 266,366.5C 264.269,368.617 262.102,370.117 259.5,371C 242.167,371.667 224.833,371.667 207.5,371C 200.985,367.791 198.485,362.624 200,355.5C 209.97,343.695 220.47,332.362 231.5,321.5 Z"/></g>
<g><path style="opacity:1" fill="#f9f9f9" d="M 178.5,300.5 C 185.738,299.07 191.238,301.404 195,307.5C 195.356,326.506 195.023,345.506 194,364.5C 191.117,372.995 185.283,375.828 176.5,373C 174,371.833 172.167,370 171,367.5C 170.333,348.5 170.333,329.5 171,310.5C 172.213,306.131 174.713,302.797 178.5,300.5 Z"/></g>
<g><path style="opacity:1" fill="#0b0b0b" d="M 55.5,302.5 C 63.2437,301.406 67.7437,304.74 69,312.5C 69.8953,321.947 69.2286,331.281 67,340.5C 64.7897,337.71 61.9563,336.877 58.5,338C 55.8783,341.13 55.8783,344.297 58.5,347.5C 56.5253,348.578 54.692,348.245 53,346.5C 49.7013,339.93 48.2013,332.93 48.5,325.5C 48.6273,320.462 49.1273,315.462 50,310.5C 51.2734,307.403 53.1067,304.736 55.5,302.5 Z"/></g>
<g><path style="opacity:1" fill="#0e0e0e" d="M 304.5,314.5 C 309.485,313.771 313.985,314.771 318,317.5C 319.411,319.65 320.245,321.984 320.5,324.5C 313.167,324.5 305.833,324.5 298.5,324.5C 298.971,320.221 300.971,316.888 304.5,314.5 Z"/></g>
<g><path style="opacity:1" fill="#090a09" d="M 399.5,320.5 C 399.5,321.5 399.5,322.5 399.5,323.5C 397.901,323.232 396.568,323.566 395.5,324.5C 389.833,324.5 384.167,324.5 378.5,324.5C 380.094,315.523 385.427,312.356 394.5,315C 397.079,316.076 398.746,317.909 399.5,320.5 Z"/></g>
<g><path style="opacity:1" fill="#888989" d="M 211.5,319.5 C 218.532,319.17 225.532,319.503 232.5,320.5C 232.376,321.107 232.043,321.44 231.5,321.5C 224.833,320.833 218.167,320.167 211.5,319.5 Z"/></g>
<g><path style="opacity:1" fill="#6e6e6e" d="M 399.5,320.5 C 400.434,321.568 400.768,322.901 400.5,324.5C 398.833,324.5 397.167,324.5 395.5,324.5C 396.568,323.566 397.901,323.232 399.5,323.5C 399.5,322.5 399.5,321.5 399.5,320.5 Z"/></g>
<g><path style="opacity:1" fill="#babbbc" d="M 322.5,339.5 C 314.701,340.817 306.701,341.483 298.5,341.5C 306.271,339.845 314.271,339.178 322.5,339.5 Z"/></g>
</svg>
